<svg width="72" height="24" viewBox="0 0 72 24" fill="none" xmlns="http://www.w3.org/2000/svg">
<path d="M2.5335 21.4458C0.845434 19.7429 0 17.2572 0 13.9858V2.57149C0 1.79149 0.229555 1.16863 0.685865 0.700061C1.14498 0.234347 1.75526 6.10352e-05 2.51951 6.10352e-05C3.28376 6.10352e-05 3.88844 0.234347 4.33355 0.700061C4.78146 1.16863 5.00262 1.79149 5.00262 2.56863V12.5029C5.00262 14.3715 5.42253 15.7972 6.26237 16.7743C7.10221 17.7543 8.31717 18.2429 9.91005 18.2429C11.5001 18.2429 12.7235 17.7486 13.5717 16.7572C14.4228 15.7686 14.8483 14.3486 14.8483 12.5001V2.57149C14.8483 1.79149 15.0722 1.16863 15.5174 0.702918C15.9653 0.234347 16.5699 0.00291818 17.3314 0.00291818C18.0956 0.00291818 18.7059 0.237204 19.1622 0.702918C19.6213 1.17149 19.8481 1.79435 19.8481 2.57149V13.9858C19.8481 17.2343 18.9971 19.7172 17.2978 21.4286C15.5985 23.1429 13.1322 24.0001 9.90725 24.0001C6.68229 24.0001 4.22437 23.1486 2.5335 21.4458Z" fill="url(#paint0_linear_29_2555)"/>
<path d="M58.191 21.1226C58.191 19.5195 56.887 18.2279 55.2863 18.2422C54.8326 18.2479 53.5942 18.2508 53.4002 18.2508C51.7766 18.2508 50.5383 17.7622 49.6823 16.7821C48.8262 15.8019 48.3982 14.3789 48.3982 12.5101V2.5718C48.3982 1.7917 48.17 1.16877 47.7163 0.703002C47.2626 0.234375 46.6463 6.10352e-05 45.8701 6.10352e-05C45.0912 6.10352e-05 44.4691 0.234375 44.004 0.700144C43.5361 1.16877 43.305 1.7917 43.305 2.56894V13.9846C43.305 17.2564 44.1667 19.7424 45.8873 21.4455C47.6078 23.1485 50.116 24.0001 53.4031 24.0001H55.3148C56.9042 24.0029 58.191 22.7113 58.191 21.1226Z" fill="url(#paint1_linear_29_2555)"/>
<path d="M31.8021 24.0001C30.6758 24.0001 29.5839 23.7785 28.5522 23.3413C27.5578 22.9184 26.6665 22.3142 25.9014 21.5461C25.1362 20.778 24.5344 19.8804 24.1131 18.885C23.6775 17.8494 23.4568 16.7533 23.4568 15.6227C23.4568 14.4921 23.6775 13.396 24.1131 12.3604C24.5344 11.3621 25.1362 10.4674 25.9014 9.69929C26.6665 8.93117 27.5607 8.32703 28.5522 7.90414C29.5839 7.46686 30.6758 7.24534 31.8021 7.24534C32.9283 7.24534 34.0202 7.46686 35.0519 7.90414C36.0463 8.32703 36.9376 8.93117 37.7028 9.69929C38.4679 10.4674 39.0698 11.365 39.491 12.3604C39.9266 13.396 40.1473 14.4921 40.1473 15.6227C40.1473 16.7533 39.9266 17.8494 39.491 18.885C39.0698 19.8833 38.4679 20.778 37.7028 21.5461C36.9376 22.3142 36.0435 22.9184 35.0519 23.3413C34.0202 23.7785 32.9255 24.0001 31.8021 24.0001ZM31.8021 12.1331C29.8877 12.1331 28.3287 13.6981 28.3287 15.6198C28.3287 17.5416 29.8877 19.1066 31.8021 19.1066C33.7164 19.1066 35.2754 17.5416 35.2754 15.6198C35.2754 13.6981 33.7164 12.1331 31.8021 12.1331Z" fill="url(#paint2_linear_29_2555)"/>
<path d="M62.9275 16.3019C61.8012 16.3019 60.7094 16.0864 59.6777 15.661C58.6832 15.2495 57.792 14.6617 57.0268 13.9143C56.2616 13.167 55.6598 12.2937 55.2385 11.3252C54.8029 10.3175 54.5823 9.25104 54.5823 8.151C54.5823 7.05096 54.8029 5.98451 55.2385 4.97684C55.6598 4.00555 56.2616 3.13504 57.0268 2.38768C57.792 1.64033 58.6861 1.05252 59.6777 0.641052C60.7094 0.215591 61.8012 6.10352e-05 62.9275 6.10352e-05C64.0538 6.10352e-05 65.1456 0.215591 66.1773 0.641052C67.1718 1.05252 68.063 1.64033 68.8282 2.38768C69.5934 3.13504 70.1952 4.00835 70.6165 4.97684C71.0521 5.98451 71.2727 7.05096 71.2727 8.151C71.2727 9.25104 71.0521 10.3175 70.6165 11.3252C70.1952 12.2965 69.5934 13.167 68.8282 13.9143C68.063 14.6617 67.1689 15.2495 66.1773 15.661C65.1485 16.0864 64.0538 16.3019 62.9275 16.3019ZM62.9275 4.75571C61.0131 4.75571 59.4541 6.27841 59.4541 8.1482C59.4541 10.018 61.0131 11.5407 62.9275 11.5407C64.8419 11.5407 66.4009 10.018 66.4009 8.1482C66.4037 6.27841 64.8447 4.75571 62.9275 4.75571Z" fill="url(#paint3_linear_29_2555)"/>
<defs>
<linearGradient id="paint0_linear_29_2555" x1="5.14909" y1="2.09639" x2="16.5056" y2="35.0875" gradientUnits="userSpaceOnUse">
<stop stop-color="#9760F2"/>
<stop offset="1" stop-color="#6A3BE4"/>
</linearGradient>
<linearGradient id="paint1_linear_29_2555" x1="5.14909" y1="2.09639" x2="16.5056" y2="35.0875" gradientUnits="userSpaceOnUse">
<stop stop-color="#9760F2"/>
<stop offset="1" stop-color="#6A3BE4"/>
</linearGradient>
<linearGradient id="paint2_linear_29_2555" x1="5.14909" y1="2.09639" x2="16.5056" y2="35.0875" gradientUnits="userSpaceOnUse">
<stop stop-color="#9760F2"/>
<stop offset="1" stop-color="#6A3BE4"/>
</linearGradient>
<linearGradient id="paint3_linear_29_2555" x1="5.14909" y1="2.09639" x2="16.5056" y2="35.0875" gradientUnits="userSpaceOnUse">
<stop stop-color="#9760F2"/>
<stop offset="1" stop-color="#6A3BE4"/>
</linearGradient>
</defs>
</svg>
